<svg xmlns="http://www.w3.org/2000/svg" viewBox="0 0 512 512" role="img" aria-labelledby="title desc">
  <title id="title">Favicône LFJP</title>
  <desc id="desc">Emblème circulaire bleu avec symbole LFJP en blanc et rouge</desc>
  <defs>
    <linearGradient id="bg" x1="0%" y1="0%" x2="100%" y2="100%">
      <stop offset="0%" stop-color="#1f4b6f" />
      <stop offset="100%" stop-color="#1b3f64" />
    </linearGradient>
  </defs>
  <circle cx="256" cy="256" r="240" fill="url(#bg)" stroke="#d2d6dc" stroke-width="20" />
  <g fill="#ffffff" transform="translate(256 150)">
    <path d="M-20 142c7.5-38 12-78 12-118 0-32-2-65-6-98 6-4 12-6 18-6s12 2 18 6c-4 33-6 66-6 98 0 40 4.5 80 12 118h-48z" />
    <path d="M-96-10c18-42 53-72 96-78 43 6 78 36 96 78l-28 12c-15-30-37-50-68-54-31 4-53 24-68 54l-28-12z" />
    <path d="M-92 58c24-40 58-62 92-64 34 2 68 24 92 64l-26 20c-18-28-42-44-66-46-24 2-48 18-66 46l-26-20z" />
  </g>
  <g fill="#d7323e" transform="translate(256 300)">
    <g transform="translate(-120 0)">
      <circle r="42" />
      <path d="M0-60h8l8 18h28v8h-28l-8 18h-8l-8-18h-28v-8h28l8-18z" />
    </g>
    <g>
      <circle r="54" />
      <path d="M0-78h10l10 22h34v10h-34l-10 22h-10l-10-22h-34v-10h34l10-22z" />
    </g>
    <g transform="translate(120 0)">
      <circle r="42" />
      <path d="M0-60h8l8 18h28v8h-28l-8 18h-8l-8-18h-28v-8h28l8-18z" />
    </g>
  </g>
  <g font-family="'Montserrat', 'Helvetica Neue', Arial, sans-serif" font-weight="700" font-size="116" letter-spacing="8">
    <text x="118" y="365" fill="#ffffff">LFJ</text>
    <text x="330" y="365" fill="#d7323e">P</text>
  </g>
  <g stroke="#d7323e" stroke-width="10" stroke-linecap="round" fill="none" transform="translate(358 330)">
    <circle r="34" />
    <path d="M0-46v24M0 46v-24M-46 0h24M46 0h-24" />
  </g>
</svg>
