<svg xmlns="http://www.w3.org/2000/svg" viewBox="0 0 512 512" role="img" aria-labelledby="title desc">
  <title id="title">Favicône du Lycée Français Jacques Prévert</title>
  <desc id="desc">Interprétation vectorielle du logo du Lycée Français Jacques Prévert de Saly, Sénégal</desc>
  <rect width="512" height="512" fill="#ffffff" />
  <rect width="176" height="512" x="0" fill="#0B4EA2" />
  <rect width="176" height="512" x="168" fill="#ffffff" />
  <rect width="176" height="512" x="336" fill="#EF3E42" />
  <path
    fill="#0B4EA2"
    d="M220 120c-64 0-122 60-122 132 0 56 32 100 86 118l-22 78h84l-12-76c44-2 74-18 94-48 24-36 22-84-6-128-22-34-54-76-94-76-10 0-20 2-28 6 8 16 18 32 30 46-18-2-32-10-46-22-8 14-16 28-18 44-2 18 6 32 22 44-16 0-30 8-38 20-10 16-8 36 8 52 18 18 48 28 86 28-22 8-44 12-66 12l8 46h-30l12-46c-48-8-86-38-102-84-18-54 6-118 54-152 20-14 44-24 68-24 20 0 40 6 58 18 20 14 36 32 48 52 22 40 26 82 10 118-16 32-46 56-90 68l14 72h-94l28-92c-48-22-78-62-78-112 0-84 72-152 152-152 32 0 62 8 90 26l-16 24c-22-16-46-24-74-24z"
  />
  <path
    fill="#EF3E42"
    d="M260 84l40-24 40 24-40 24zM320 132l32-18 26 18-26 18zM286 146l26-16 26 16-26 16z"
  />
  <text x="364" y="94" font-family="'Raleway', 'Gill Sans', sans-serif" font-size="48" fill="#0B4EA2" transform="rotate(90 364 94)" text-anchor="start">
    Lycée Français
  </text>
  <text x="70" y="428" font-family="'Playfair Display', 'Times New Roman', serif" font-size="64" fill="#0B4EA2" letter-spacing="1">
    Jacques Prévert
  </text>
  <text x="134" y="468" font-family="'Raleway', 'Gill Sans', sans-serif" font-size="40" fill="#0B4EA2">
    Saly, Sénégal
  </text>
</svg>
